<?xml version="1.0" encoding="UTF-8" standalone="no"?>
<svg
   xmlns:dc="http://purl.org/dc/elements/1.1/"
   xmlns:cc="http://creativecommons.org/ns#"
   xmlns:rdf="http://www.w3.org/1999/02/22-rdf-syntax-ns#"
   xmlns:svg="http://www.w3.org/2000/svg"
   xmlns="http://www.w3.org/2000/svg"
   xmlns:sodipodi="http://sodipodi.sourceforge.net/DTD/sodipodi-0.dtd"
   xmlns:inkscape="http://www.inkscape.org/namespaces/inkscape"
   width="300mm"
   height="60mm"
   viewBox="0 0 300 60"
   version="1.1"
   id="svg8"
   inkscape:version="1.0.2-2 (e86c870879, 2021-01-15)"
   sodipodi:docname="footer-logo-dark.svg">
  <defs
     id="defs2" />
  <sodipodi:namedview
     id="base"
     pagecolor="#ffffff"
     bordercolor="#666666"
     borderopacity="1.0"
     inkscape:pageopacity="0.0"
     inkscape:pageshadow="2"
     inkscape:zoom="0.49497475"
     inkscape:cx="565.84647"
     inkscape:cy="57.394767"
     inkscape:document-units="mm"
     inkscape:current-layer="g1200"
     inkscape:document-rotation="0"
     showgrid="false"
     inkscape:window-width="1920"
     inkscape:window-height="1017"
     inkscape:window-x="1912"
     inkscape:window-y="-8"
     inkscape:window-maximized="1"
     inkscape:snap-global="false" />
  <metadata
     id="metadata5">
    <rdf:RDF>
      <cc:Work
         rdf:about="">
        <dc:format>image/svg+xml</dc:format>
        <dc:type
           rdf:resource="http://purl.org/dc/dcmitype/StillImage" />
        <dc:title></dc:title>
      </cc:Work>
    </rdf:RDF>
  </metadata>
  <g
     inkscape:label="Layer 1"
     inkscape:groupmode="layer"
     id="layer1">
    <g
       id="g1200"
       transform="matrix(0.40192722,0,0,0.40192722,2.143555,2.1435553)">
	
	
	
	
	
<g
   aria-label="Miss Muelitas"
   id="text1236"
   style="font-size:91.0713px;line-height:1.25;font-family:sans-serif;fill:#fefefe;fill-opacity:1;stroke-width:0.47521;stroke-miterlimit:4;stroke-dasharray:none"
   transform="translate(-144.82293,-47.396631)">
  <g
     aria-label="Aisha &amp; Mica"
     id="text1313"
     style="font-size:92.137px;line-height:1.25;font-family:sans-serif;stroke-width:0.456087;fill:#fefefe;fill-opacity:1">
    <path
       d="m 200.07963,143.48313 -3.14921,-8.27794 h -26.81331 l -3.14921,8.45789 q -1.84454,4.94877 -3.14922,6.70333 -1.30467,1.70957 -4.27393,1.70957 -2.51937,0 -4.45389,-1.84454 -1.93452,-1.84454 -1.93452,-4.18395 0,-1.34967 0.44989,-2.78931 0.44989,-1.43964 1.48463,-4.004 l 16.87079,-42.829306 q 0.71982,-1.844539 1.70957,-4.408899 1.03474,-2.609349 2.15946,-4.318922 1.16971,-1.709574 3.01425,-2.744315 1.88953,-1.079731 4.63384,-1.079731 2.78931,0 4.63385,1.079731 1.88953,1.034741 3.01425,2.699326 1.1697,1.664584 1.93451,3.599102 0.8098,1.889528 2.0245,5.083731 l 17.2307,42.559373 q 2.02449,4.85879 2.02449,7.06324 0,2.29443 -1.93452,4.22894 -1.88952,1.88953 -4.58885,1.88953 -1.57461,0 -2.69933,-0.58485 -1.12472,-0.53987 -1.88953,-1.48463 -0.7648,-0.98975 -1.66458,-2.96926 -0.85479,-2.02449 -1.48463,-3.55411 z m -26.4534,-18.31043 h 19.70509 L 183.3888,97.954492 Z"
       style="font-style:normal;font-variant:normal;font-weight:normal;font-stretch:normal;font-size:92.137px;font-family:'Arial Rounded MT Bold';-inkscape-font-specification:'Arial Rounded MT Bold, Normal';font-variant-ligatures:normal;font-variant-caps:normal;font-variant-numeric:normal;font-variant-east-asian:normal;stroke-width:0.456087;fill:#fefefe;fill-opacity:1"
       id="path1315" />
    <path
       d="m 235.57577,109.11171 v 35.49614 q 0,3.68908 -1.75456,5.5786 -1.75457,1.88953 -4.45389,1.88953 -2.69933,0 -4.4089,-1.93451 -1.66459,-1.93452 -1.66459,-5.53362 v -35.13623 q 0,-3.64409 1.66459,-5.48863 1.70957,-1.84454 4.4089,-1.84454 2.69932,0 4.45389,1.84454 1.75456,1.84454 1.75456,5.12872 z m -6.07349,-12.686836 q -2.56436,0 -4.4089,-1.574607 -1.79955,-1.574607 -1.79955,-4.453888 0,-2.609349 1.84454,-4.273933 1.88953,-1.709573 4.36391,-1.709573 2.38441,0 4.22895,1.529618 1.84454,1.529618 1.84454,4.453888 0,2.834292 -1.79955,4.453888 -1.79955,1.574607 -4.27394,1.574607 z"
       style="font-style:normal;font-variant:normal;font-weight:normal;font-stretch:normal;font-size:92.137px;font-family:'Arial Rounded MT Bold';-inkscape-font-specification:'Arial Rounded MT Bold, Normal';font-variant-ligatures:normal;font-variant-caps:normal;font-variant-numeric:normal;font-variant-east-asian:normal;stroke-width:0.456087;fill:#fefefe;fill-opacity:1"
       id="path1317" />
    <path
       d="m 287.80773,136.01499 q 0,5.08373 -2.47439,8.72782 -2.47438,3.5991 -7.33316,5.48863 -4.8138,1.84454 -11.74207,1.84454 -6.61335,0 -11.33717,-2.02449 -4.72382,-2.0245 -6.97326,-5.03874 -2.24944,-3.05924 -2.24944,-6.11848 0,-2.02449 1.43964,-3.46413 1.43964,-1.43964 3.64409,-1.43964 1.93452,0 2.96926,0.94476 1.03474,0.94477 1.9795,2.65434 1.88953,3.28418 4.49888,4.90377 2.65434,1.6196 7.1982,1.6196 3.68908,0 6.0285,-1.6196 2.3844,-1.66458 2.3844,-3.77905 0,-3.23919 -2.47438,-4.72382 -2.42939,-1.48463 -8.05299,-2.8343 -6.34341,-1.5746 -10.34741,-3.28418 -3.95902,-1.75456 -6.34342,-4.58885 -2.38441,-2.83429 -2.38441,-6.97326 0,-3.68908 2.20445,-6.97326 2.20445,-3.28418 6.47839,-5.2187 4.31892,-1.9795 10.3924,-1.9795 4.76881,0 8.54787,0.98975 3.82404,0.98975 6.34342,2.65434 2.56436,1.66458 3.86903,3.68908 1.34966,2.02449 1.34966,3.95901 0,2.11447 -1.43964,3.46413 -1.39465,1.34967 -4.004,1.34967 -1.88953,0 -3.23919,-1.07973 -1.30467,-1.07973 -3.01425,-3.23919 -1.39465,-1.79956 -3.28418,-2.87929 -1.88953,-1.07973 -5.12872,-1.07973 -3.32917,0 -5.53362,1.43964 -2.20445,1.39466 -2.20445,3.50913 0,1.93452 1.6196,3.1942 1.6196,1.2147 4.36391,2.0245 2.74432,0.80979 7.55811,1.9795 5.71358,1.39465 9.31268,3.32917 3.64409,1.93452 5.48863,4.58886 1.88953,2.60934 1.88953,5.9835 z"
       style="font-style:normal;font-variant:normal;font-weight:normal;font-stretch:normal;font-size:92.137px;font-family:'Arial Rounded MT Bold';-inkscape-font-specification:'Arial Rounded MT Bold, Normal';font-variant-ligatures:normal;font-variant-caps:normal;font-variant-numeric:normal;font-variant-east-asian:normal;stroke-width:0.456087;fill:#fefefe;fill-opacity:1"
       id="path1319" />
    <path
       d="m 310.21214,91.341143 v 18.220447 q 2.33941,-2.69932 4.54386,-4.27393 2.24944,-1.57461 4.94877,-2.33941 2.69932,-0.8098 5.80355,-0.8098 4.67883,0 8.27793,1.9795 3.64409,1.97951 5.71358,5.75857 1.30467,2.20445 1.75456,4.94876 0.44989,2.69933 0.44989,6.25344 v 23.52913 q 0,3.68908 -1.70958,5.5786 -1.66458,1.88953 -4.45388,1.88953 -6.07349,0 -6.07349,-7.46813 v -20.73983 q 0,-5.89353 -1.75456,-9.04274 -1.75456,-3.1942 -6.65834,-3.1942 -3.28418,0 -5.93852,1.88953 -2.60934,1.84454 -3.91402,5.08373 -0.98975,2.74431 -0.98975,9.76256 v 16.24095 q 0,3.64409 -1.66459,5.5786 -1.61959,1.88953 -4.54386,1.88953 -6.07349,0 -6.07349,-7.46813 V 91.341143 q 0,-3.734068 1.57461,-5.578607 1.6196,-1.889529 4.49888,-1.889529 2.92427,0 4.54386,1.889529 1.66459,1.889528 1.66459,5.578607 z"
       style="font-style:normal;font-variant:normal;font-weight:normal;font-stretch:normal;font-size:92.137px;font-family:'Arial Rounded MT Bold';-inkscape-font-specification:'Arial Rounded MT Bold, Normal';font-variant-ligatures:normal;font-variant-caps:normal;font-variant-numeric:normal;font-variant-east-asian:normal;stroke-width:0.456087;fill:#fefefe;fill-opacity:1"
       id="path1321" />
    <path
       d="m 384.8935,145.14771 q -4.45389,3.46414 -8.63785,5.2187 -4.13897,1.70957 -9.31267,1.70957 -4.72382,0 -8.32293,-1.84454 -3.55411,-1.88953 -5.48863,-5.08373 -1.93451,-3.1942 -1.93451,-6.92827 0,-5.03874 3.1942,-8.59285 3.1942,-3.55412 8.77281,-4.76881 1.16971,-0.26994 5.80355,-1.2147 4.63384,-0.94476 7.91802,-1.70957 3.32917,-0.8098 7.19821,-1.93452 -0.22495,-4.85879 -1.97951,-7.10823 -1.70957,-2.29442 -7.15321,-2.29442 -4.67883,0 -7.06324,1.30467 -2.33942,1.30468 -4.04899,3.91402 -1.66458,2.60935 -2.3844,3.46414 -0.67484,0.8098 -2.96926,0.8098 -2.06949,0 -3.5991,-1.30468 -1.48463,-1.34966 -1.48463,-3.41914 0,-3.2392 2.29442,-6.29843 2.29443,-3.05924 7.15322,-5.03874 4.85879,-1.97951 12.10198,-1.97951 8.09798,0 12.73182,1.93452 4.63384,1.88953 6.52337,6.02849 1.93452,4.13897 1.93452,10.97726 0,4.31892 -0.045,7.33317 0,3.01425 -0.045,6.70333 0,3.46413 1.12472,7.24319 1.16971,3.73407 1.16971,4.8138 0,1.88953 -1.79955,3.46413 -1.75456,1.52962 -4.004,1.52962 -1.88953,0 -3.73407,-1.75456 -1.84454,-1.79955 -3.91402,-5.17371 z m -0.8098,-17.77056 q -2.69933,0.98975 -7.87304,2.11447 -5.12872,1.07973 -7.10822,1.6196 -1.97951,0.49487 -3.77906,2.02449 -1.79955,1.48463 -1.79955,4.18396 0,2.7893 2.11447,4.76881 2.11447,1.93451 5.53362,1.93451 3.64409,0 6.70333,-1.5746 3.10422,-1.6196 4.54386,-4.13897 1.66459,-2.7893 1.66459,-9.17771 z"
       style="font-style:normal;font-variant:normal;font-weight:normal;font-stretch:normal;font-size:92.137px;font-family:'Arial Rounded MT Bold';-inkscape-font-specification:'Arial Rounded MT Bold, Normal';font-variant-ligatures:normal;font-variant-caps:normal;font-variant-numeric:normal;font-variant-east-asian:normal;stroke-width:0.456087;fill:#fefefe;fill-opacity:1"
       id="path1323" />
    <path
       d="m 439.55485,98.989234 q 0,-4.183956 2.15946,-7.603102 2.20445,-3.464135 6.4334,-5.48863 4.22894,-2.024495 9.94251,-2.024495 5.66859,0 9.80756,2.114472 4.13896,2.114473 6.16346,5.533619 2.06948,3.419147 2.06948,7.108226 0,5.038746 -3.32917,8.772806 -3.32917,3.73407 -9.80755,7.60311 2.24944,2.65433 4.18396,4.99375 1.93451,2.33942 3.73406,4.36391 1.79955,2.02449 3.28418,3.46414 0.67484,-1.25969 2.06949,-4.72383 1.43964,-3.46413 2.65434,-4.99375 1.25968,-1.52962 3.50912,-1.52962 2.11447,0 3.73407,1.52962 1.61959,1.48463 1.61959,3.64409 0,1.97951 -1.39465,5.6236 -1.39465,3.5991 -4.04899,8.008 1.66459,1.43964 5.26369,4.36391 3.64409,2.92427 4.45389,4.004 0.85478,1.03474 0.85478,2.7893 0,2.33942 -1.70957,3.95902 -1.66459,1.5746 -3.73407,1.5746 -2.11447,0 -4.09398,-1.34966 -1.9795,-1.34966 -8.4129,-6.61335 -2.92427,2.74432 -6.07348,4.49888 -3.10423,1.75456 -6.70333,2.60935 -3.55411,0.85478 -7.96301,0.85478 -5.6236,0 -10.12247,-1.61959 -4.45389,-1.66459 -7.42315,-4.45389 -2.96926,-2.78931 -4.4089,-6.16346 -1.43964,-3.41915 -1.43964,-6.92827 0,-3.37416 1.07973,-6.16346 1.07973,-2.8343 3.01425,-5.08374 1.9795,-2.29442 4.8138,-4.31892 2.87928,-2.06948 6.65833,-4.004 -3.37415,-4.22894 -5.12872,-7.51312 -1.70957,-3.32917 -1.70957,-6.838296 z m 12.73182,21.549616 q -4.58885,2.65434 -6.88328,5.30868 -2.24944,2.65434 -2.24944,6.29843 0,2.06948 0.8098,3.95901 0.85479,1.88953 2.42939,3.50912 1.6196,1.6196 3.73407,2.47439 2.11447,0.85478 4.45389,0.85478 2.29443,0 4.45389,-0.71982 2.15946,-0.71982 4.09398,-2.02449 1.93451,-1.34967 4.004,-3.32917 -4.004,-3.68908 -7.19821,-7.28818 -3.1942,-3.64409 -7.64809,-9.04275 z m 4.58886,-12.32692 q 4.58885,-2.92427 6.61335,-4.90377 2.06948,-2.0245 2.06948,-4.858791 0,-2.789304 -2.06948,-4.678832 -2.0245,-1.889529 -5.12872,-1.889529 -3.10423,0 -5.2187,1.934517 -2.06948,1.934518 -2.06948,4.543866 0,1.349663 0.76481,2.924269 0.80979,1.52962 1.9795,3.05924 1.16971,1.52962 3.05924,3.86903 z"
       style="font-style:normal;font-variant:normal;font-weight:normal;font-stretch:normal;font-size:92.137px;font-family:'Arial Rounded MT Bold';-inkscape-font-specification:'Arial Rounded MT Bold, Normal';font-variant-ligatures:normal;font-variant-caps:normal;font-variant-numeric:normal;font-variant-east-asian:normal;stroke-width:0.456087;fill:#fefefe;fill-opacity:1"
       id="path1325" />
    <path
       d="M 547.79783,141.00875 537.22547,98.989234 v 45.528636 q 0,3.77906 -1.70957,5.66858 -1.66459,1.88953 -4.45389,1.88953 -2.69933,0 -4.4089,-1.84454 -1.70958,-1.88953 -1.70958,-5.71357 V 92.330896 q 0,-4.318922 2.24944,-5.803551 2.24944,-1.529618 6.07349,-1.529618 h 4.13896 q 3.73407,0 5.39866,0.674831 1.70957,0.674832 2.51937,2.429394 0.80979,1.754562 1.84454,5.713573 l 9.5826,36.125985 9.58261,-36.125985 q 1.03474,-3.959011 1.84454,-5.713573 0.8098,-1.754562 2.47438,-2.429394 1.70958,-0.674831 5.44365,-0.674831 h 4.13896 q 3.82405,0 6.07349,1.529618 2.24943,1.484629 2.24943,5.803551 v 52.186974 q 0,3.77906 -1.70957,5.66858 -1.66458,1.88953 -4.49888,1.88953 -2.65433,0 -4.36391,-1.88953 -1.70957,-1.88952 -1.70957,-5.66858 V 98.989234 l -10.57236,42.019516 q -1.03474,4.09397 -1.70957,6.02849 -0.62985,1.88953 -2.38441,3.46414 -1.75456,1.5746 -4.85879,1.5746 -2.33941,0 -3.95901,-1.03474 -1.61959,-0.98975 -2.51937,-2.56436 -0.89977,-1.57461 -1.43964,-3.46413 -0.49488,-1.93452 -1.03474,-4.004 z"
       style="font-style:normal;font-variant:normal;font-weight:normal;font-stretch:normal;font-size:92.137px;font-family:'Arial Rounded MT Bold';-inkscape-font-specification:'Arial Rounded MT Bold, Normal';font-variant-ligatures:normal;font-variant-caps:normal;font-variant-numeric:normal;font-variant-east-asian:normal;stroke-width:0.456087;fill:#fefefe;fill-opacity:1"
       id="path1327" />
    <path
       d="m 613.70636,109.11171 v 35.49614 q 0,3.68908 -1.75456,5.5786 -1.75456,1.88953 -4.45389,1.88953 -2.69933,0 -4.4089,-1.93451 -1.66458,-1.93452 -1.66458,-5.53362 v -35.13623 q 0,-3.64409 1.66458,-5.48863 1.70957,-1.84454 4.4089,-1.84454 2.69933,0 4.45389,1.84454 1.75456,1.84454 1.75456,5.12872 z m -6.07348,-12.686836 q -2.56436,0 -4.4089,-1.574607 -1.79955,-1.574607 -1.79955,-4.453888 0,-2.609349 1.84454,-4.273933 1.88952,-1.709573 4.36391,-1.709573 2.3844,0 4.22894,1.529618 1.84454,1.529618 1.84454,4.453888 0,2.834292 -1.79955,4.453888 -1.79955,1.574607 -4.27393,1.574607 z"
       style="font-style:normal;font-variant:normal;font-weight:normal;font-stretch:normal;font-size:92.137px;font-family:'Arial Rounded MT Bold';-inkscape-font-specification:'Arial Rounded MT Bold, Normal';font-variant-ligatures:normal;font-variant-caps:normal;font-variant-numeric:normal;font-variant-east-asian:normal;stroke-width:0.456087;fill:#fefefe;fill-opacity:1"
       id="path1329" />
    <path
       d="m 670.43721,136.86978 q 0,2.29443 -1.39465,4.90377 -1.34966,2.60935 -4.18396,4.99376 -2.7893,2.33941 -7.06323,3.77905 -4.27394,1.43965 -9.6276,1.43965 -11.38216,0 -17.77056,-6.61335 -6.38841,-6.65834 -6.38841,-17.81556 0,-7.55811 2.92427,-13.36166 2.92427,-5.80355 8.45789,-8.95277 5.53362,-3.1942 13.2267,-3.1942 4.76881,0 8.72782,1.39465 4.004,1.39465 6.74832,3.5991 2.7893,2.20445 4.22894,4.72382 1.48463,2.47439 1.48463,4.63385 0,2.20445 -1.66459,3.73407 -1.61959,1.52961 -3.95901,1.52961 -1.52962,0 -2.56436,-0.7648 -0.98975,-0.8098 -2.24944,-2.56436 -2.24943,-3.41915 -4.72382,-5.12872 -2.42939,-1.70958 -6.20845,-1.70958 -5.44364,0 -8.77281,4.27394 -3.32917,4.22894 -3.32917,11.6071 0,3.46413 0.85479,6.3884 0.85479,2.87928 2.47438,4.94877 1.6196,2.02449 3.91403,3.10422 2.29442,1.03474 5.03874,1.03474 3.68908,0 6.29843,-1.70957 2.65433,-1.70957 4.67883,-5.2187 1.12472,-2.06948 2.42939,-3.23919 1.30468,-1.16971 3.1942,-1.16971 2.24944,0 3.73407,1.70958 1.48463,1.70957 1.48463,3.64409 z"
       style="font-style:normal;font-variant:normal;font-weight:normal;font-stretch:normal;font-size:92.137px;font-family:'Arial Rounded MT Bold';-inkscape-font-specification:'Arial Rounded MT Bold, Normal';font-variant-ligatures:normal;font-variant-caps:normal;font-variant-numeric:normal;font-variant-east-asian:normal;stroke-width:0.456087;fill:#fefefe;fill-opacity:1"
       id="path1331" />
    <path
       d="m 712.18677,145.14771 q -4.45389,3.46414 -8.63784,5.2187 -4.13897,1.70957 -9.31268,1.70957 -4.72382,0 -8.32292,-1.84454 -3.55411,-1.88953 -5.48863,-5.08373 -1.93452,-3.1942 -1.93452,-6.92827 0,-5.03874 3.1942,-8.59285 3.19421,-3.55412 8.77281,-4.76881 1.16971,-0.26994 5.80355,-1.2147 4.63385,-0.94476 7.91803,-1.70957 3.32917,-0.8098 7.1982,-1.93452 -0.22494,-4.85879 -1.9795,-7.10823 -1.70958,-2.29442 -7.15322,-2.29442 -4.67883,0 -7.06324,1.30467 -2.33941,1.30468 -4.04898,3.91402 -1.66459,2.60935 -2.38441,3.46414 -0.67483,0.8098 -2.96926,0.8098 -2.06948,0 -3.5991,-1.30468 -1.48463,-1.34966 -1.48463,-3.41914 0,-3.2392 2.29443,-6.29843 2.29443,-3.05924 7.15321,-5.03874 4.85879,-1.97951 12.10198,-1.97951 8.09798,0 12.73182,1.93452 4.63385,1.88953 6.52337,6.02849 1.93452,4.13897 1.93452,10.97726 0,4.31892 -0.045,7.33317 0,3.01425 -0.045,6.70333 0,3.46413 1.12472,7.24319 1.16971,3.73407 1.16971,4.8138 0,1.88953 -1.79955,3.46413 -1.75456,1.52962 -4.004,1.52962 -1.88953,0 -3.73407,-1.75456 -1.84454,-1.79955 -3.91402,-5.17371 z m -0.8098,-17.77056 q -2.69932,0.98975 -7.87303,2.11447 -5.12872,1.07973 -7.10823,1.6196 -1.9795,0.49487 -3.77906,2.02449 -1.79955,1.48463 -1.79955,4.18396 0,2.7893 2.11448,4.76881 2.11447,1.93451 5.53361,1.93451 3.6441,0 6.70333,-1.5746 3.10423,-1.6196 4.54387,-4.13897 1.66458,-2.7893 1.66458,-9.17771 z"
       style="font-style:normal;font-variant:normal;font-weight:normal;font-stretch:normal;font-size:92.137px;font-family:'Arial Rounded MT Bold';-inkscape-font-specification:'Arial Rounded MT Bold, Normal';font-variant-ligatures:normal;font-variant-caps:normal;font-variant-numeric:normal;font-variant-east-asian:normal;stroke-width:0.456087;fill:#fefefe;fill-opacity:1"
       id="path1333" />
  </g>
</g>
<g
   id="g1309"
   transform="matrix(1.028579,0,0,1.028579,-219.74708,-648.57383)">
  <circle
     style="fill:#53676c;stroke-width:0.265512"
     cx="861.53735"
     cy="699.1701"
     r="67.970978"
     id="circle1263" />
  <path
     style="fill:#fefefe;stroke-width:0.265512"
     d="m 846.13102,705.07265 c 2.60415,1.00151 4.46485,3.53238 4.46485,6.47745 v 22.24093 H 836.7255 V 711.5501 c 0,-2.94507 1.86071,-5.4762 4.46407,-6.47745 l 0.88495,-14.15103 c -10.13249,-0.80716 -18.10399,-9.28471 -18.10399,-19.62484 0,-10.87354 8.81636,-19.68909 19.6891,-19.68909 10.87353,0 19.68988,8.81555 19.68988,19.68909 0,10.34092 -7.97148,18.81847 -18.10318,19.62484 z"
     id="path1265" />
  <path
     style="fill:#21d0c3;stroke-width:0.265512;fill-opacity:1"
     d="M 850.59508,766.25951 V 733.79023 H 836.7247 v 28.67803 c 4.41627,1.7322 9.05956,3.01277 13.87038,3.79125 z"
     id="path1267" />
  <g
     id="g1273"
     transform="matrix(0.26551268,0,0,0.26551268,793.56642,631.19905)">
	<path
   style="fill:#eef3f7"
   d="m 188.67,88.846 c 34.341,0 62.175,27.832 62.175,62.173 0,34.341 -27.835,62.173 -62.175,62.173 -34.338,0 -62.173,-27.832 -62.173,-62.173 0,-34.341 27.833,-62.173 62.173,-62.173 z"
   id="path1269" />

	<path
   style="fill:#b6f0ff;fill-opacity:1"
   d="m 188.67,91.47 c 32.89,0 59.552,26.66 59.552,59.55 0,32.888 -26.66,59.552 -59.552,59.552 -32.89,0 -59.552,-26.663 -59.552,-59.552 0,-32.889 26.66,-59.55 59.552,-59.55 z"
   id="path1271" />

</g>
  <g
     id="g1279"
     transform="matrix(0.26551268,0,0,0.26551268,793.56642,631.19905)">
	<path
   style="fill:#fefefe"
   d="m 195.414,92.036 c 8.978,1.055 17.346,4.116 24.638,8.722 l -75.556,89.846 c -5.839,-6.452 -10.272,-14.203 -12.827,-22.762 l 63.744,-75.807 v 0.002 h 10e-4 z m 31.488,13.779 c 3.339,2.848 6.359,6.067 8.991,9.584 l -74.266,88.314 c -3.937,-2.004 -7.617,-4.427 -10.985,-7.219 l 76.256,-90.682 z"
   id="path1275" />

	<path
   style="fill:#fefefe"
   d="m 367.871,278.23 c 9.808,3.772 16.816,13.304 16.816,24.396 v 83.766 h -52.24 v -83.766 c 0,-11.092 7.011,-20.625 16.816,-24.396 l 3.213,-99.252 c 0.068,-2.122 1.223,-3.905 3.122,-4.852 46.493,-23.175 32.119,-64.778 0.338,-73.557 -1.613,-0.443 -0.585,-2.678 1.083,-2.581 35.984,2.075 65.166,55.212 9.002,87.364 -0.931,0.535 -1.453,1.482 -1.416,2.555 l 3.261,90.32 z"
   id="path1277" />

</g>
  <path
     style="fill:#21d0c3;stroke-width:0.265512;fill-opacity:1"
     d="M 895.70568,757.93729 V 733.79103 H 881.8361 v 30.26659 c 4.88278,-1.5267 9.52872,-3.59027 13.86958,-6.11954 z"
     id="path1281" />
  <g
     id="g1287"
     transform="matrix(0.26551268,0,0,0.26551268,793.56642,631.19905)"
     style="fill:#15bdb2;fill-opacity:1">
	<path
   style="fill:#15bdb2;fill-opacity:1"
   d="m 162.548,386.392 h 52.24 v 3.549 h -52.24 z"
   id="path1283" />

	<path
   style="fill:#15bdb2;fill-opacity:1"
   d="m 332.447,386.392 h 52.24 v 3.549 h -52.24 z"
   id="path1285" />

</g>
</g>
</g>
  </g>
</svg>
