<?xml version="1.0" encoding="UTF-8" standalone="no"?>
<svg
   xmlns:dc="http://purl.org/dc/elements/1.1/"
   xmlns:cc="http://creativecommons.org/ns#"
   xmlns:rdf="http://www.w3.org/1999/02/22-rdf-syntax-ns#"
   xmlns:svg="http://www.w3.org/2000/svg"
   xmlns="http://www.w3.org/2000/svg"
   xmlns:sodipodi="http://sodipodi.sourceforge.net/DTD/sodipodi-0.dtd"
   xmlns:inkscape="http://www.inkscape.org/namespaces/inkscape"
   width="300mm"
   height="60mm"
   viewBox="0 0 300 60"
   version="1.1"
   id="svg8"
   inkscape:version="1.0.2-2 (e86c870879, 2021-01-15)"
   sodipodi:docname="logo-dark.svg">
  <defs
     id="defs2" />
  <sodipodi:namedview
     id="base"
     pagecolor="#ffffff"
     bordercolor="#666666"
     borderopacity="1.0"
     inkscape:pageopacity="0.0"
     inkscape:pageshadow="2"
     inkscape:zoom="0.35"
     inkscape:cx="440.39454"
     inkscape:cy="95.068807"
     inkscape:document-units="mm"
     inkscape:current-layer="g1200"
     inkscape:document-rotation="0"
     showgrid="false"
     inkscape:window-width="1920"
     inkscape:window-height="1017"
     inkscape:window-x="1912"
     inkscape:window-y="-8"
     inkscape:window-maximized="1" />
  <metadata
     id="metadata5">
    <rdf:RDF>
      <cc:Work
         rdf:about="">
        <dc:format>image/svg+xml</dc:format>
        <dc:type
           rdf:resource="http://purl.org/dc/dcmitype/StillImage" />
        <dc:title></dc:title>
      </cc:Work>
    </rdf:RDF>
  </metadata>
  <g
     inkscape:label="Layer 1"
     inkscape:groupmode="layer"
     id="layer1">
    <g
       id="g1200"
       transform="matrix(0.40192722,0,0,0.40192722,2.143555,2.1435553)">
	
	
	
	
	<g
   id="g1232"
   transform="matrix(0.45472939,0,0,0.45472939,-53.093636,-49.879208)">
  <path
     id="SVGCleanerId_0"
     style="fill:#ffffff"
     d="m 331.72,120.586 c -34.422,0 -40.878,33.777 -75.72,33.777 v 0 c -34.847,0 -41.298,-33.777 -75.72,-33.777 -42.153,0 -59.965,43.095 -59.965,85.248 0,42.153 35.743,195.052 77.896,195.052 17.828,0 21.924,-97.807 57.795,-97.807 35.871,0 39.967,97.807 57.795,97.807 42.153,0 77.896,-152.899 77.896,-195.052 0,-42.153 -17.824,-85.248 -59.977,-85.248 z" />
  <g
     id="g1224">
    <g
       id="g1194">
		<path
   id="SVGCleanerId_0_1_"
   style="fill:#ffffff"
   d="m 331.72,120.586 c -34.422,0 -40.878,33.777 -75.72,33.777 v 0 c -34.847,0 -41.298,-33.777 -75.72,-33.777 -42.153,0 -59.965,43.095 -59.965,85.248 0,42.153 35.743,195.052 77.896,195.052 17.828,0 21.924,-97.807 57.795,-97.807 35.871,0 39.967,97.807 57.795,97.807 42.153,0 77.896,-152.899 77.896,-195.052 0,-42.153 -17.824,-85.248 -59.977,-85.248 z" />

	</g>
    <path
       style="fill:#b6f0ff"
       d="m 256,287.529 c -53.56,0 -99.558,-46.316 -120.141,-81.966 l -0.005,0.271 c 0,50.171 35.22,163.517 57.846,177.971 2.56,-5.949 5.663,-16.292 7.9,-23.736 9.718,-32.322 21.796,-72.54 54.4,-72.54 32.604,0 44.687,40.228 54.4,72.55 2.237,7.439 5.34,17.777 7.895,23.731 C 340.92,369.341 376.141,256 376.141,205.839 l -0.005,-0.271 C 355.558,241.213 309.56,287.529 256,287.529 Z"
       id="path1196" />
    <path
       style="fill:#b6f0ff"
       d="m 208.015,149.412 c -3.149,-2.591 -5.914,-4.787 -8.576,-6.656 6.508,26.132 29.327,45.471 56.561,45.471 27.234,0 50.048,-19.333 56.556,-45.466 -2.657,1.869 -5.422,4.065 -8.571,6.656 -11.11,9.134 -24.94,20.506 -47.99,20.506 -23.05,0 -36.869,-11.382 -47.98,-20.511 z"
       id="path1198" />
  </g>
</g>

<g
   aria-label="Miss Muelitas"
   id="text1236"
   style="font-size:91.0713px;line-height:1.25;font-family:sans-serif;fill:#fffefe;fill-opacity:1;stroke-width:0.47521;stroke-miterlimit:4;stroke-dasharray:none"
   transform="translate(0,-47.396631)">
  <path
     d="M 173.62885,138.84959 163.17878,97.316099 v 45.002031 q 0,3.73534 -1.6898,5.60302 -1.64534,1.86767 -4.40238,1.86767 -2.6681,0 -4.3579,-1.82321 -1.6898,-1.86767 -1.6898,-5.64748 V 90.734775 q 0,-4.268967 2.22342,-5.736424 2.22342,-1.511926 6.00324,-1.511926 h 4.09109 q 3.69088,0 5.33621,0.667026 1.6898,0.667026 2.49023,2.401294 0.80043,1.734268 1.8232,5.647487 l 9.47177,35.708128 9.47177,-35.708128 q 1.02278,-3.913219 1.82321,-5.647487 0.80043,-1.734268 2.44576,-2.401294 1.6898,-0.667026 5.38068,-0.667026 h 4.09109 q 3.77982,0 6.00324,1.511926 2.22342,1.467457 2.22342,5.736424 v 51.583355 q 0,3.73534 -1.6898,5.60302 -1.64533,1.86767 -4.44684,1.86767 -2.62364,0 -4.31344,-1.86767 -1.6898,-1.86768 -1.6898,-5.60302 V 97.316099 l -10.45007,41.533491 q -1.02278,4.04663 -1.6898,5.95877 -0.62256,1.86767 -2.35683,3.42406 -1.73427,1.5564 -4.80259,1.5564 -2.31235,0 -3.91322,-1.02277 -1.60086,-0.97831 -2.49023,-2.5347 -0.88936,-1.5564 -1.42299,-3.42407 -0.48915,-1.91214 -1.02277,-3.95769 z"
     style="font-style:normal;font-variant:normal;font-weight:normal;font-stretch:normal;font-size:91.0713px;font-family:'Arial Rounded MT Bold';-inkscape-font-specification:'Arial Rounded MT Bold, Normal';font-variant-ligatures:normal;font-variant-caps:normal;font-variant-numeric:normal;font-variant-east-asian:normal;fill:#fffefe;fill-opacity:1;stroke-width:0.47521;stroke-miterlimit:4;stroke-dasharray:none"
     id="path1238" />
  <path
     d="m 238.77506,107.32149 v 35.08557 q 0,3.64641 -1.73426,5.51409 -1.73427,1.86767 -4.40238,1.86767 -2.6681,0 -4.3579,-1.91214 -1.64533,-1.91214 -1.64533,-5.46962 v -34.72982 q 0,-3.60194 1.64533,-5.42515 1.6898,-1.8232 4.3579,-1.8232 2.66811,0 4.40238,1.8232 1.73426,1.82321 1.73426,5.0694 z M 232.77183,94.7814 q -2.5347,0 -4.35791,-1.556394 -1.77873,-1.556394 -1.77873,-4.402373 0,-2.579167 1.8232,-4.224498 1.86768,-1.6898 4.31344,-1.6898 2.35682,0 4.18003,1.511926 1.8232,1.511926 1.8232,4.402372 0,2.80151 -1.77873,4.402373 -1.77874,1.556394 -4.2245,1.556394 z"
     style="font-style:normal;font-variant:normal;font-weight:normal;font-stretch:normal;font-size:91.0713px;font-family:'Arial Rounded MT Bold';-inkscape-font-specification:'Arial Rounded MT Bold, Normal';font-variant-ligatures:normal;font-variant-caps:normal;font-variant-numeric:normal;font-variant-east-asian:normal;fill:#fffefe;fill-opacity:1;stroke-width:0.47521;stroke-miterlimit:4;stroke-dasharray:none"
     id="path1240" />
  <path
     d="m 290.40288,133.9136 q 0,5.02493 -2.44576,8.62687 -2.44577,3.55747 -7.24835,5.42514 -4.75812,1.82321 -11.60626,1.82321 -6.53685,0 -11.20604,-2.00108 -4.66918,-2.00108 -6.8926,-4.98046 -2.22342,-3.02385 -2.22342,-6.0477 0,-2.00108 1.42299,-3.42407 1.42299,-1.42299 3.60194,-1.42299 1.91214,0 2.93492,0.93384 1.02277,0.93383 1.95661,2.62363 1.86767,3.2462 4.44684,4.84706 2.62363,1.60086 7.11494,1.60086 3.64641,0 5.95877,-1.60086 2.35682,-1.64533 2.35682,-3.73535 0,-3.20172 -2.44576,-4.66918 -2.40129,-1.46746 -7.95984,-2.80151 -6.27005,-1.55639 -10.22774,-3.24619 -3.91322,-1.73427 -6.27004,-4.53578 -2.35683,-2.80151 -2.35683,-6.8926 0,-3.64641 2.17895,-6.89261 2.17896,-3.24619 6.40345,-5.15833 4.26897,-1.95661 10.27221,-1.95661 4.71365,0 8.44899,0.9783 3.77982,0.97831 6.27005,2.62364 2.5347,1.64533 3.82428,3.64641 1.33405,2.00108 1.33405,3.91322 0,2.09001 -1.42298,3.42406 -1.37853,1.33406 -3.95769,1.33406 -1.86768,0 -3.20173,-1.06724 -1.28958,-1.06725 -2.97938,-3.20173 -1.37852,-1.77874 -3.2462,-2.84598 -1.86767,-1.06724 -5.06939,-1.06724 -3.29067,0 -5.46962,1.42299 -2.17895,1.37852 -2.17895,3.46854 0,1.91214 1.60086,3.15725 1.60087,1.20065 4.31344,2.00108 2.71257,0.80043 7.47069,1.95661 5.64749,1.37852 9.20496,3.29066 3.60194,1.91214 5.42515,4.53578 1.86767,2.57917 1.86767,5.9143 z"
     style="font-style:normal;font-variant:normal;font-weight:normal;font-stretch:normal;font-size:91.0713px;font-family:'Arial Rounded MT Bold';-inkscape-font-specification:'Arial Rounded MT Bold, Normal';font-variant-ligatures:normal;font-variant-caps:normal;font-variant-numeric:normal;font-variant-east-asian:normal;fill:#fffefe;fill-opacity:1;stroke-width:0.47521;stroke-miterlimit:4;stroke-dasharray:none"
     id="path1242" />
  <path
     d="m 339.76282,133.9136 q 0,5.02493 -2.44576,8.62687 -2.44577,3.55747 -7.24835,5.42514 -4.75812,1.82321 -11.60626,1.82321 -6.53685,0 -11.20604,-2.00108 -4.66918,-2.00108 -6.8926,-4.98046 -2.22342,-3.02385 -2.22342,-6.0477 0,-2.00108 1.42299,-3.42407 1.42299,-1.42299 3.60194,-1.42299 1.91214,0 2.93492,0.93384 1.02277,0.93383 1.95661,2.62363 1.86767,3.2462 4.44684,4.84706 2.62363,1.60086 7.11494,1.60086 3.64641,0 5.95877,-1.60086 2.35682,-1.64533 2.35682,-3.73535 0,-3.20172 -2.44576,-4.66918 -2.40129,-1.46746 -7.95984,-2.80151 -6.27005,-1.55639 -10.22774,-3.24619 -3.91322,-1.73427 -6.27004,-4.53578 -2.35683,-2.80151 -2.35683,-6.8926 0,-3.64641 2.17895,-6.89261 2.17896,-3.24619 6.40345,-5.15833 4.26897,-1.95661 10.27221,-1.95661 4.71365,0 8.44899,0.9783 3.77982,0.97831 6.27005,2.62364 2.5347,1.64533 3.82428,3.64641 1.33405,2.00108 1.33405,3.91322 0,2.09001 -1.42299,3.42406 -1.37852,1.33406 -3.95768,1.33406 -1.86768,0 -3.20173,-1.06724 -1.28958,-1.06725 -2.97938,-3.20173 -1.37852,-1.77874 -3.2462,-2.84598 -1.86767,-1.06724 -5.06939,-1.06724 -3.29067,0 -5.46962,1.42299 -2.17895,1.37852 -2.17895,3.46854 0,1.91214 1.60086,3.15725 1.60087,1.20065 4.31344,2.00108 2.71257,0.80043 7.47069,1.95661 5.64749,1.37852 9.20496,3.29066 3.60194,1.91214 5.42515,4.53578 1.86767,2.57917 1.86767,5.9143 z"
     style="font-style:normal;font-variant:normal;font-weight:normal;font-stretch:normal;font-size:91.0713px;font-family:'Arial Rounded MT Bold';-inkscape-font-specification:'Arial Rounded MT Bold, Normal';font-variant-ligatures:normal;font-variant-caps:normal;font-variant-numeric:normal;font-variant-east-asian:normal;fill:#fffefe;fill-opacity:1;stroke-width:0.47521;stroke-miterlimit:4;stroke-dasharray:none"
     id="path1244" />
  <path
     d="M 395.6596,138.84959 385.20952,97.316099 v 45.002031 q 0,3.73534 -1.6898,5.60302 -1.64533,1.86767 -4.40237,1.86767 -2.6681,0 -4.3579,-1.82321 -1.6898,-1.86767 -1.6898,-5.64748 V 90.734775 q 0,-4.268967 2.22342,-5.736424 2.22342,-1.511926 6.00323,-1.511926 h 4.0911 q 3.69087,0 5.3362,0.667026 1.6898,0.667026 2.49024,2.401294 0.80043,1.734268 1.8232,5.647487 l 9.47177,35.708128 9.47177,-35.708128 q 1.02277,-3.913219 1.82321,-5.647487 0.80043,-1.734268 2.44576,-2.401294 1.6898,-0.667026 5.38068,-0.667026 h 4.09109 q 3.77981,0 6.00323,1.511926 2.22342,1.467457 2.22342,5.736424 v 51.583355 q 0,3.73534 -1.6898,5.60302 -1.64533,1.86767 -4.44684,1.86767 -2.62363,0 -4.31343,-1.86767 -1.6898,-1.86768 -1.6898,-5.60302 V 97.316099 l -10.45008,41.533491 q -1.02277,4.04663 -1.6898,5.95877 -0.62255,1.86767 -2.35682,3.42406 -1.73427,1.5564 -4.80259,1.5564 -2.31236,0 -3.91322,-1.02277 -1.60086,-0.97831 -2.49023,-2.5347 -0.88937,-1.5564 -1.42299,-3.42407 -0.48915,-1.91214 -1.02277,-3.95769 z"
     style="font-style:normal;font-variant:normal;font-weight:normal;font-stretch:normal;font-size:91.0713px;font-family:'Arial Rounded MT Bold';-inkscape-font-specification:'Arial Rounded MT Bold, Normal';font-variant-ligatures:normal;font-variant-caps:normal;font-variant-numeric:normal;font-variant-east-asian:normal;fill:#fffefe;fill-opacity:1;stroke-width:0.47521;stroke-miterlimit:4;stroke-dasharray:none"
     id="path1246" />
  <path
     d="m 480.19405,142.94068 v -1.55639 q -2.17895,2.75704 -4.58025,4.62471 -2.40129,1.86768 -5.24727,2.75705 -2.84598,0.93383 -6.49239,0.93383 -4.40237,0 -7.91537,-1.8232 -3.46854,-1.82321 -5.38068,-5.02493 -2.26789,-3.86875 -2.26789,-11.1171 v -24.05741 q 0,-3.64641 1.64533,-5.42515 1.64533,-1.8232 4.35791,-1.8232 2.75704,0 4.44684,1.8232 1.6898,1.82321 1.6898,5.42515 v 19.43269 q 0,4.2245 0.71149,7.11495 0.7115,2.84597 2.5347,4.49131 1.86767,1.60086 5.02493,1.60086 3.06832,0 5.78089,-1.82321 2.71258,-1.8232 3.95769,-4.75812 1.02278,-2.57916 1.02278,-11.29497 v -14.76351 q 0,-3.60194 1.6898,-5.42515 1.68979,-1.8232 4.40237,-1.8232 2.71257,0 4.3579,1.8232 1.64533,1.77874 1.64533,5.42515 v 35.17451 q 0,3.46853 -1.60086,5.2028 -1.55639,1.73427 -4.04663,1.73427 -2.49023,0 -4.13556,-1.77874 -1.60086,-1.8232 -1.60086,-5.0694 z"
     style="font-style:normal;font-variant:normal;font-weight:normal;font-stretch:normal;font-size:91.0713px;font-family:'Arial Rounded MT Bold';-inkscape-font-specification:'Arial Rounded MT Bold, Normal';font-variant-ligatures:normal;font-variant-caps:normal;font-variant-numeric:normal;font-variant-east-asian:normal;fill:#fffefe;fill-opacity:1;stroke-width:0.47521;stroke-miterlimit:4;stroke-dasharray:none"
     id="path1248" />
  <path
     d="m 537.55829,128.08824 h -23.74613 q 0.0445,4.13556 1.64533,7.29282 1.64533,3.15725 4.31344,4.75811 2.71257,1.60087 5.95877,1.60087 2.17895,0 3.95768,-0.48916 1.82321,-0.53362 3.51301,-1.60086 1.6898,-1.11171 3.11279,-2.35682 1.42299,-1.24512 3.69087,-3.3796 0.93384,-0.80043 2.66811,-0.80043 1.86767,0 3.02385,1.02277 1.15618,1.02277 1.15618,2.89045 0,1.64533 -1.28959,3.86875 -1.28958,2.17895 -3.91322,4.2245 -2.57916,2.00107 -6.53685,3.33513 -3.91322,1.33405 -9.02709,1.33405 -11.69519,0 -18.18758,-6.67026 -6.49238,-6.67026 -6.49238,-18.09864 0,-5.38068 1.60086,-9.96093 1.60086,-4.62471 4.66918,-7.91537 3.06832,-3.29067 7.55963,-5.02493 4.49131,-1.77874 9.96092,-1.77874 7.11495,0 12.18435,3.02385 5.11386,2.97939 7.64856,7.73751 2.5347,4.75811 2.5347,9.69411 0,4.58024 -2.62363,5.95876 -2.62364,1.33406 -7.38176,1.33406 z m -23.74613,-6.89261 h 22.01186 q -0.44468,-6.22557 -3.3796,-9.29389 -2.89044,-3.11279 -7.64856,-3.11279 -4.53578,0 -7.47069,3.15725 -2.89045,3.11279 -3.51301,9.24943 z"
     style="font-style:normal;font-variant:normal;font-weight:normal;font-stretch:normal;font-size:91.0713px;font-family:'Arial Rounded MT Bold';-inkscape-font-specification:'Arial Rounded MT Bold, Normal';font-variant-ligatures:normal;font-variant-caps:normal;font-variant-numeric:normal;font-variant-east-asian:normal;fill:#fffefe;fill-opacity:1;stroke-width:0.47521;stroke-miterlimit:4;stroke-dasharray:none"
     id="path1250" />
  <path
     d="M 557.79141,142.40706 V 89.75647 q 0,-3.646409 1.60086,-5.514082 1.64533,-1.867673 4.40237,-1.867673 2.75704,0 4.44684,1.867673 1.6898,1.823204 1.6898,5.514082 v 52.65059 q 0,3.69088 -1.73427,5.55855 -1.68979,1.82321 -4.40237,1.82321 -2.6681,0 -4.3579,-1.91214 -1.64533,-1.91214 -1.64533,-5.46962 z"
     style="font-style:normal;font-variant:normal;font-weight:normal;font-stretch:normal;font-size:91.0713px;font-family:'Arial Rounded MT Bold';-inkscape-font-specification:'Arial Rounded MT Bold, Normal';font-variant-ligatures:normal;font-variant-caps:normal;font-variant-numeric:normal;font-variant-east-asian:normal;fill:#fffefe;fill-opacity:1;stroke-width:0.47521;stroke-miterlimit:4;stroke-dasharray:none"
     id="path1252" />
  <path
     d="m 594.61124,107.32149 v 35.08557 q 0,3.64641 -1.73426,5.51409 -1.73427,1.86767 -4.40238,1.86767 -2.6681,0 -4.3579,-1.91214 -1.64533,-1.91214 -1.64533,-5.46962 v -34.72982 q 0,-3.60194 1.64533,-5.42515 1.6898,-1.8232 4.3579,-1.8232 2.66811,0 4.40238,1.8232 1.73426,1.82321 1.73426,5.0694 z M 588.60801,94.7814 q -2.5347,0 -4.3579,-1.556394 -1.77874,-1.556394 -1.77874,-4.402373 0,-2.579167 1.8232,-4.224498 1.86768,-1.6898 4.31344,-1.6898 2.35683,0 4.18003,1.511926 1.8232,1.511926 1.8232,4.402372 0,2.80151 -1.77873,4.402373 -1.77874,1.556394 -4.2245,1.556394 z"
     style="font-style:normal;font-variant:normal;font-weight:normal;font-stretch:normal;font-size:91.0713px;font-family:'Arial Rounded MT Bold';-inkscape-font-specification:'Arial Rounded MT Bold, Normal';font-variant-ligatures:normal;font-variant-caps:normal;font-variant-numeric:normal;font-variant-east-asian:normal;fill:#fffefe;fill-opacity:1;stroke-width:0.47521;stroke-miterlimit:4;stroke-dasharray:none"
     id="path1254" />
  <path
     d="m 607.81836,101.49613 h 1.33405 v -7.292819 q 0,-2.934915 0.13341,-4.580246 0.17787,-1.6898 0.88936,-2.890447 0.7115,-1.245115 2.04555,-2.001078 1.33405,-0.800431 2.97938,-0.800431 2.31236,0 4.18003,1.734268 1.24512,1.156178 1.5564,2.845978 0.35575,1.645331 0.35575,4.713651 v 8.271124 h 4.44684 q 2.57916,0 3.91322,1.24511 1.37852,1.20065 1.37852,3.11279 0,2.44577 -1.95661,3.42407 -1.91215,0.97831 -5.51409,0.97831 h -2.26788 v 22.32314 q 0,2.84597 0.17787,4.40237 0.22234,1.51192 1.06724,2.49023 0.88937,0.93384 2.84598,0.93384 1.06724,0 2.89045,-0.35575 1.8232,-0.40022 2.84597,-0.40022 1.46746,0 2.62364,1.20065 1.20065,1.15618 1.20065,2.89045 0,2.93491 -3.20173,4.4913 -3.20172,1.5564 -9.20496,1.5564 -5.69196,0 -8.62687,-1.91214 -2.93492,-1.91214 -3.86875,-5.29174 -0.88937,-3.3796 -0.88937,-9.02709 v -23.30144 h -1.60086 q -2.62364,0 -4.00216,-1.24512 -1.37852,-1.24512 -1.37852,-3.15726 0,-1.91214 1.42299,-3.11279 1.46746,-1.24511 4.2245,-1.24511 z"
     style="font-style:normal;font-variant:normal;font-weight:normal;font-stretch:normal;font-size:91.0713px;font-family:'Arial Rounded MT Bold';-inkscape-font-specification:'Arial Rounded MT Bold, Normal';font-variant-ligatures:normal;font-variant-caps:normal;font-variant-numeric:normal;font-variant-east-asian:normal;fill:#fffefe;fill-opacity:1;stroke-width:0.47521;stroke-miterlimit:4;stroke-dasharray:none"
     id="path1256" />
  <path
     d="m 670.07413,142.94068 q -4.40238,3.42407 -8.53794,5.15834 -4.09109,1.6898 -9.20496,1.6898 -4.66918,0 -8.22665,-1.82321 -3.51301,-1.86767 -5.42515,-5.02493 -1.91214,-3.15725 -1.91214,-6.84813 0,-4.98046 3.15726,-8.49347 3.15725,-3.513 8.67134,-4.71365 1.15617,-0.26681 5.73642,-1.20064 4.58025,-0.93384 7.82644,-1.6898 3.29066,-0.80043 7.11494,-1.91214 -0.22234,-4.80259 -1.95661,-7.02601 -1.68979,-2.26789 -7.07047,-2.26789 -4.62472,0 -6.98154,1.28958 -2.31236,1.28959 -4.00216,3.86875 -1.64533,2.57917 -2.35682,3.42407 -0.66703,0.80043 -2.93492,0.80043 -2.04555,0 -3.55747,-1.28958 -1.46746,-1.33405 -1.46746,-3.3796 0,-3.20173 2.26789,-6.22558 2.26789,-3.02385 7.07048,-4.98046 4.80258,-1.95661 11.962,-1.95661 8.00431,0 12.58456,1.91214 4.58024,1.86768 6.44792,5.95877 1.91214,4.09109 1.91214,10.85029 0,4.26897 -0.0445,7.24835 0,2.97938 -0.0445,6.62579 0,3.42407 1.11171,7.15942 1.15618,3.69087 1.15618,4.75812 0,1.86767 -1.77874,3.42406 -1.73426,1.51193 -3.95768,1.51193 -1.86768,0 -3.69088,-1.73427 -1.82321,-1.77874 -3.86875,-5.11387 z m -0.80044,-17.56502 q -2.6681,0.97831 -7.78197,2.09002 -5.06939,1.06724 -7.026,1.60086 -1.95661,0.48915 -3.73535,2.00108 -1.77874,1.46746 -1.77874,4.13556 0,2.75704 2.09002,4.71365 2.09001,1.91214 5.46961,1.91214 3.60194,0 6.62579,-1.55639 3.06832,-1.60086 4.49131,-4.09109 1.64533,-2.75704 1.64533,-9.07156 z"
     style="font-style:normal;font-variant:normal;font-weight:normal;font-stretch:normal;font-size:91.0713px;font-family:'Arial Rounded MT Bold';-inkscape-font-specification:'Arial Rounded MT Bold, Normal';font-variant-ligatures:normal;font-variant-caps:normal;font-variant-numeric:normal;font-variant-east-asian:normal;fill:#fffefe;fill-opacity:1;stroke-width:0.47521;stroke-miterlimit:4;stroke-dasharray:none"
     id="path1258" />
  <path
     d="m 732.5967,133.9136 q 0,5.02493 -2.44577,8.62687 -2.44576,3.55747 -7.24835,5.42514 -4.75812,1.82321 -11.60625,1.82321 -6.53686,0 -11.20604,-2.00108 -4.66918,-2.00108 -6.8926,-4.98046 -2.22342,-3.02385 -2.22342,-6.0477 0,-2.00108 1.42299,-3.42407 1.42299,-1.42299 3.60194,-1.42299 1.91214,0 2.93491,0.93384 1.02278,0.93383 1.95661,2.62363 1.86768,3.2462 4.44684,4.84706 2.62364,1.60086 7.11495,1.60086 3.64641,0 5.95877,-1.60086 2.35682,-1.64533 2.35682,-3.73535 0,-3.20172 -2.44576,-4.66918 -2.4013,-1.46746 -7.95985,-2.80151 -6.27004,-1.55639 -10.22773,-3.24619 -3.91322,-1.73427 -6.27005,-4.53578 -2.35682,-2.80151 -2.35682,-6.8926 0,-3.64641 2.17895,-6.89261 2.17895,-3.24619 6.40345,-5.15833 4.26897,-1.95661 10.2722,-1.95661 4.71365,0 8.449,0.9783 3.77982,0.97831 6.27005,2.62364 2.5347,1.64533 3.82428,3.64641 1.33405,2.00108 1.33405,3.91322 0,2.09001 -1.42299,3.42406 -1.37852,1.33406 -3.95769,1.33406 -1.86767,0 -3.20172,-1.06724 -1.28958,-1.06725 -2.97938,-3.20173 -1.37853,-1.77874 -3.2462,-2.84598 -1.86767,-1.06724 -5.0694,-1.06724 -3.29066,0 -5.46961,1.42299 -2.17895,1.37852 -2.17895,3.46854 0,1.91214 1.60086,3.15725 1.60086,1.20065 4.31344,2.00108 2.71257,0.80043 7.47069,1.95661 5.64749,1.37852 9.20496,3.29066 3.60194,1.91214 5.42514,4.53578 1.86768,2.57917 1.86768,5.9143 z"
     style="font-style:normal;font-variant:normal;font-weight:normal;font-stretch:normal;font-size:91.0713px;font-family:'Arial Rounded MT Bold';-inkscape-font-specification:'Arial Rounded MT Bold, Normal';font-variant-ligatures:normal;font-variant-caps:normal;font-variant-numeric:normal;font-variant-east-asian:normal;fill:#fffefe;fill-opacity:1;stroke-width:0.47521;stroke-miterlimit:4;stroke-dasharray:none"
     id="path1260" />
</g>
</g>
  </g>
</svg>
