<?xml version="1.0" encoding="UTF-8" standalone="no"?>
<svg
   xmlns:dc="http://purl.org/dc/elements/1.1/"
   xmlns:cc="http://creativecommons.org/ns#"
   xmlns:rdf="http://www.w3.org/1999/02/22-rdf-syntax-ns#"
   xmlns:svg="http://www.w3.org/2000/svg"
   xmlns="http://www.w3.org/2000/svg"
   xmlns:sodipodi="http://sodipodi.sourceforge.net/DTD/sodipodi-0.dtd"
   xmlns:inkscape="http://www.inkscape.org/namespaces/inkscape"
   width="210mm"
   height="210mm"
   viewBox="0 0 210 210"
   version="1.1"
   id="svg8"
   inkscape:version="1.0.2-2 (e86c870879, 2021-01-15)"
   sodipodi:docname="sun-iicon.svg">
  <defs
     id="defs2" />
  <sodipodi:namedview
     id="base"
     pagecolor="#ffffff"
     bordercolor="#666666"
     borderopacity="1.0"
     inkscape:pageopacity="0.0"
     inkscape:pageshadow="2"
     inkscape:zoom="0.49497475"
     inkscape:cx="362.69956"
     inkscape:cy="636.37211"
     inkscape:document-units="mm"
     inkscape:current-layer="g918"
     inkscape:document-rotation="0"
     showgrid="false"
     inkscape:window-width="1920"
     inkscape:window-height="1017"
     inkscape:window-x="1912"
     inkscape:window-y="-8"
     inkscape:window-maximized="1" />
  <metadata
     id="metadata5">
    <rdf:RDF>
      <cc:Work
         rdf:about="">
        <dc:format>image/svg+xml</dc:format>
        <dc:type
           rdf:resource="http://purl.org/dc/dcmitype/StillImage" />
        <dc:title></dc:title>
      </cc:Work>
    </rdf:RDF>
  </metadata>
  <g
     inkscape:label="Layer 1"
     inkscape:groupmode="layer"
     id="layer1">
    <g
       id="g918"
       transform="matrix(0.26458333,0,0,0.26458333,31.692515,68.041175)">
      <g
         style="fill:#ffcc00"
         id="g1043"
         transform="matrix(36.434267,0,0,36.434267,-160.004,-297.40504)">
        <path
           d="m 18,12 c 0,3.3137 -2.6863,6 -6,6 -3.31371,0 -6,-2.6863 -6,-6 0,-3.31371 2.68629,-6 6,-6 3.3137,0 6,2.68629 6,6 z"
           fill="#1c274c"
           id="path1029"
           style="fill:#ffcc00" />
        <path
           fill-rule="evenodd"
           clip-rule="evenodd"
           d="m 12,1.25 c 0.4142,0 0.75,0.33579 0.75,0.75 V 3 C 12.75,3.41421 12.4142,3.75 12,3.75 11.5858,3.75 11.25,3.41421 11.25,3 V 2 C 11.25,1.58579 11.5858,1.25 12,1.25 Z M 4.39861,4.39861 c 0.29289,-0.29289 0.76777,-0.29289 1.06066,0 l 0.39284,0.39284 c 0.29289,0.29289 0.29289,0.76776 0,1.06066 -0.2929,0.29289 -0.76777,0.29289 -1.06066,0 L 4.39861,5.45927 c -0.29289,-0.29289 -0.29289,-0.76777 0,-1.06066 z m 15.20249,2.6e-4 c 0.2929,0.29289 0.2929,0.76777 0,1.06066 l -0.3928,0.39284 c -0.2929,0.29289 -0.7678,0.29289 -1.0607,0 -0.2929,-0.2929 -0.2929,-0.76777 0,-1.06066 l 0.3929,-0.39284 c 0.2929,-0.29289 0.7677,-0.29289 1.0606,0 z M 1.25,12 c 0,-0.4142 0.33579,-0.75 0.75,-0.75 h 1 c 0.41421,0 0.75,0.3358 0.75,0.75 0,0.4142 -0.33579,0.75 -0.75,0.75 H 2 C 1.58579,12.75 1.25,12.4142 1.25,12 Z m 19,0 c 0,-0.4142 0.3358,-0.75 0.75,-0.75 h 1 c 0.4142,0 0.75,0.3358 0.75,0.75 0,0.4142 -0.3358,0.75 -0.75,0.75 h -1 c -0.4142,0 -0.75,-0.3358 -0.75,-0.75 z m -2.1024,6.1476 c 0.2929,-0.2929 0.7678,-0.2929 1.0607,0 l 0.3928,0.3929 c 0.2929,0.2929 0.2929,0.7677 0,1.0606 -0.2929,0.2929 -0.7677,0.2929 -1.0606,0 l -0.3929,-0.3928 c -0.2929,-0.2929 -0.2929,-0.7678 0,-1.0607 z m -12.29549,3e-4 c 0.29289,0.2929 0.29289,0.7678 0,1.0607 l -0.39284,0.3928 c -0.29289,0.2929 -0.76777,0.2929 -1.06066,0 -0.29289,-0.2929 -0.29289,-0.7678 0,-1.0607 l 0.39284,-0.3928 c 0.29289,-0.2929 0.76776,-0.2929 1.06066,0 z M 12,20.25 c 0.4142,0 0.75,0.3358 0.75,0.75 v 1 c 0,0.4142 -0.3358,0.75 -0.75,0.75 -0.4142,0 -0.75,-0.3358 -0.75,-0.75 v -1 c 0,-0.4142 0.3358,-0.75 0.75,-0.75 z"
           fill="#1c274c"
           id="path1031"
           style="fill:#ffcc00" />
      </g>
    </g>
  </g>
</svg>
